<svg xmlns="http://www.w3.org/2000/svg" viewBox="0 0 200 200">
  <!-- Desejo: o videogame que a gente quer -->
  <defs>
    <linearGradient id="bg" x1="0" y1="0" x2="1" y2="1">
      <stop offset="0" stop-color="#FF9AC1"/>
      <stop offset="1" stop-color="#E4336F"/>
    </linearGradient>
    <clipPath id="clip"><rect width="200" height="200" rx="36"/></clipPath>
  </defs>
  <g clip-path="url(#clip)">
  <rect width="200" height="200" rx="36" fill="url(#bg)"/>
  <circle cx="170" cy="32" r="48" fill="#FFFFFF" opacity="0.14"/>
  <path d="M40 100 a28 28 0 0 1 28 -26 h64 a28 28 0 0 1 28 26 l8 40 a18 18 0 0 1 -32 12 l-14 -18 h-44 l-14 18 a18 18 0 0 1 -32 -12 Z" fill="#FFFFFF" stroke="#2B2D42" stroke-width="5" stroke-linejoin="round"/>
  <path d="M70 96 v24 M58 108 h24" stroke="#2B2D42" stroke-width="7" stroke-linecap="round"/>
  <circle cx="128" cy="100" r="7" fill="#3AE0FF" stroke="#2B2D42" stroke-width="3"/>
  <circle cx="144" cy="114" r="7" fill="#FFD23F" stroke="#2B2D42" stroke-width="3"/>
  <path d="M100 58 C88 44 66 52 76 30 C82 18 98 22 100 34 C102 22 118 18 124 30 C134 52 112 44 100 58 Z" fill="#FF3D8B" stroke="#2B2D42" stroke-width="4" stroke-linejoin="round"/>
  </g>
</svg>
