<svg xmlns="http://www.w3.org/2000/svg" viewBox="0 0 200 200">
  <defs>
    <linearGradient id="bg" x1="0" y1="0" x2="1" y2="1">
      <stop offset="0" stop-color="#FFC45C"/>
      <stop offset="1" stop-color="#FF7A1A"/>
    </linearGradient>
    <clipPath id="clip"><rect width="200" height="200" rx="36"/></clipPath>
  </defs>
  <g clip-path="url(#clip)">
  <rect width="200" height="200" rx="36" fill="url(#bg)"/>
  <circle cx="32" cy="30" r="44" fill="#FFFFFF" opacity="0.14"/>
  <!-- chuva -->
  <g stroke="#1E6FD9" stroke-width="5" stroke-linecap="round">
    <path d="M30 22 l-6 14 M62 12 l-6 14 M150 14 l-6 14 M180 30 l-6 14 M24 70 l-6 14 M182 78 l-6 14"/>
  </g>
  <!-- guarda-chuva -->
  <path d="M28 100 C28 58 62 34 100 34 C138 34 172 58 172 100 C160 90 146 90 136 100 C124 90 110 90 100 100 C90 90 76 90 64 100 C54 90 40 90 28 100 Z" fill="#2B2D42"/>
  <path d="M64 100 C66 70 80 44 100 34 C120 44 134 70 136 100 C124 90 110 90 100 100 C90 90 76 90 64 100 Z" fill="#E63946"/>
  <path d="M100 34 v-10" stroke="#2B2D42" stroke-width="6" stroke-linecap="round"/>
  <path d="M100 100 V160 a12 12 0 0 1 -24 0" fill="none" stroke="#2B2D42" stroke-width="7" stroke-linecap="round"/>
  <!-- pilha de moedas protegida -->
  <g stroke="#D99400" stroke-width="3.5">
    <ellipse cx="136" cy="174" rx="24" ry="8" fill="#FFD23F"/>
    <rect x="112" y="152" width="48" height="22" fill="#FFD23F" stroke="none"/>
    <path d="M112 152 v22 M160 152 v22" fill="none"/>
    <ellipse cx="136" cy="152" rx="24" ry="8" fill="#FFE27A"/>
    <path d="M112 163 a24 8 0 0 0 48 0" fill="none"/>
    <ellipse cx="136" cy="130" rx="24" ry="8" fill="#FFE27A"/>
    <rect x="112" y="130" width="48" height="22" fill="#FFD23F" stroke="none"/>
    <path d="M112 130 v22 M160 130 v22" fill="none"/>
    <ellipse cx="136" cy="130" rx="24" ry="8" fill="#FFE27A"/>
  </g>
  </g>
</svg>
